<?xml version="1.0" encoding="UTF-8" standalone="no"?>
<svg id="svg4157" xmlns:rdf="http://www.w3.org/1999/02/22-rdf-syntax-ns#" xmlns="http://www.w3.org/2000/svg" height="189" width="189" version="1.1" xmlns:cc="http://creativecommons.org/ns#" xmlns:dc="http://purl.org/dc/elements/1.1/" viewBox="0 0 189 189">
 <g id="layer1" transform="translate(0 -863.36)">
  <g id="g4713" transform="translate(-111.21 671.21)">
   <path id="path13" d="m150.54 275.79c0 7.6111-6.1701 13.781-13.781 13.781-7.6112 0-13.781-6.1701-13.781-13.781 0-7.6112 6.1701-13.781 13.781-13.781 7.6111 0 13.781 6.1701 13.781 13.781z"/>
   <path id="path15" d="m134.79 204.92c-2.4058 2.6749-3.1606 6.4492-1.9687 9.8437 1.7718 5.2763 5.9062 5.9063 9.8437 7.875 3.9375 1.9688 10.1-2.4216 13.781 0 5.2565 3.4453 4.0753 9.6272 9.8437 13.781 7.7175 5.4613 16.305 9.5752 25.397 12.167-2.056 0.0689-3.9279 1.2025-4.9416 2.9925l-8.6428 15.435-9.8437 8.0916v-30.161c0-3.262-2.6443-5.9062-5.9063-5.9062s-5.9062 2.6442-5.9062 5.9062v35.3l-3.9375 4.2328-0.4725 0.4725c-0.1182 0.1182-0.1969 0.256-0.315 0.3741l-0.1969 0.315c-4.49 5.699-3.7926 13.903 1.5947 18.762l23.015 20.613c0.6868 0.601 1.4245 1.141 2.2049 1.614l-1.4765 1.969c-4.725-0.138-12.718 3.249-11.812 6.34l2.8941 9.115c1.3102 4.148 5.7349 6.448 9.8831 5.138 4.1481-1.31 6.4486-5.735 5.1384-9.883l-2.7562-8.682 1.4765-1.969c0.6196 0.333 1.2821 0.578 1.9688 0.729l30.949 6.437 20.042 18.822c3.169 2.979 8.154 2.825 11.133-0.345 2.98-3.169 2.825-8.154-0.344-11.133l-21.656-20.337c-1.05-0.999-2.36-1.682-3.781-1.969l-20.79-4.331 14.45-18.644 27.129 3.504c4.317 0.544 8.257-2.515 8.801-6.832 0.543-4.3162-2.515-8.2563-6.832-8.7999l-31.5-3.9375c-2.7617-0.3461-5.5012 0.7917-7.2054 2.9925l-12.974 16.577-17.325-15.592 12.698-10.434c0.5883-0.4164 1.0954-0.9367 1.4963-1.5356l9.194-16.419c1.4372-2.5991 0.7208-5.8613-1.6734-7.619 2.579 0.7875 5.3353 1.575 8.3278 2.4412 17.147 4.9022 31.283 4.0753 39.375 15.75 2.638 3.7997 10.08 10.434 9.843 23.96-0.137 8.8-6.28 10.375-3.937 15.415 2.638 5.572 10.356 9.214 17.719 15.75 7.363 6.537 10.001 17.719 9.843 25.594-0.118 5.906-1.968 11.813 1.969 15.75 2.711 2.438 6.2 3.834 9.844 3.938v-163.47z"/>
  </g>
 </g>
</svg>
