<?xml version="1.0" encoding="UTF-8" standalone="no"?>
<!-- Created with Inkscape (http://www.inkscape.org/) -->

<svg
   xmlns:dc="http://purl.org/dc/elements/1.1/"
   xmlns:cc="http://creativecommons.org/ns#"
   xmlns:rdf="http://www.w3.org/1999/02/22-rdf-syntax-ns#"
   xmlns:svg="http://www.w3.org/2000/svg"
   xmlns="http://www.w3.org/2000/svg"
   xmlns:sodipodi="http://sodipodi.sourceforge.net/DTD/sodipodi-0.dtd"
   xmlns:inkscape="http://www.inkscape.org/namespaces/inkscape"
   width="189"
   height="189"
   viewBox="0 0 189 189"
   id="svg6481"
   version="1.1"
   inkscape:version="0.91 r13725"
   sodipodi:docname="CodingOK.svg">
  <defs
     id="defs6483" />
  <sodipodi:namedview
     id="base"
     pagecolor="#ffffff"
     bordercolor="#666666"
     borderopacity="1.0"
     inkscape:pageopacity="0.0"
     inkscape:pageshadow="2"
     inkscape:zoom="0.35"
     inkscape:cx="69.496837"
     inkscape:cy="666.74539"
     inkscape:document-units="px"
     inkscape:current-layer="layer1"
     showgrid="false"
     inkscape:window-width="1536"
     inkscape:window-height="801"
     inkscape:window-x="-8"
     inkscape:window-y="-8"
     inkscape:window-maximized="1"
     units="px" />
  <metadata
     id="metadata6486">
    <rdf:RDF>
      <cc:Work
         rdf:about="">
        <dc:format>image/svg+xml</dc:format>
        <dc:type
           rdf:resource="http://purl.org/dc/dcmitype/StillImage" />
        <dc:title></dc:title>
      </cc:Work>
    </rdf:RDF>
  </metadata>
  <g
     inkscape:label="Ebene 1"
     inkscape:groupmode="layer"
     id="layer1"
     transform="translate(0,-863.36216)">
    <g
       id="g7113"
       transform="translate(-134.07143,448.3571)">
      <path
         id="path5917"
         d="m 202.17053,541.81216 -22.4832,-22.463 22.4832,-22.4637 5.5518,5.5519 -16.8918,16.9118 16.8918,16.911 -5.5518,5.552 z"
         inkscape:connector-curvature="0" />
      <path
         id="path5919"
         d="m 254.97243,541.81216 -5.552,-5.552 16.892,-16.911 -16.892,-16.9118 5.552,-5.5519 22.483,22.4637 -22.483,22.463 z"
         inkscape:connector-curvature="0" />
      <path
         id="path5921"
         d="m 215.38343,541.63916 18.836,-45.451 7.275,3.0149 -18.8359,45.4511 z"
         inkscape:connector-curvature="0" />
      <path
         id="path5923"
         d="m 149.82143,448.47396 0,122.0622 157.5,0 0,-122.0622 z m 135.844,11.8125 c 2.174,0 3.937,1.7628 3.937,3.9375 0,2.1746 -1.763,3.9375 -3.937,3.9375 -2.175,0 -3.938,-1.7629 -3.938,-3.9375 0,-2.1747 1.763,-3.9375 3.938,-3.9375 z m -13.781,0 c 2.174,0 3.937,1.7628 3.937,3.9375 0,2.1746 -1.763,3.9375 -3.937,3.9375 -2.175,0 -3.938,-1.7629 -3.938,-3.9375 0,-2.1747 1.763,-3.9375 3.938,-3.9375 z m -13.782,0 c 2.175,0 3.938,1.7628 3.938,3.9375 0,2.1746 -1.763,3.9375 -3.938,3.9375 -2.174,0 -3.937,-1.7629 -3.937,-3.9375 0,-2.1747 1.763,-3.9375 3.937,-3.9375 z m 37.407,98.4377 -133.8755,0 0,-78.7502 133.8755,0 z"
         inkscape:connector-curvature="0" />
    </g>
  </g>
</svg>
