<?xml version="1.0" encoding="UTF-8" standalone="no"?>
<svg id="svg4157" xmlns:rdf="http://www.w3.org/1999/02/22-rdf-syntax-ns#" xmlns="http://www.w3.org/2000/svg" height="189" width="189" version="1.1" xmlns:cc="http://creativecommons.org/ns#" xmlns:dc="http://purl.org/dc/elements/1.1/" viewBox="0 0 189 189">
 <g id="layer1" transform="translate(0 -863.36)">
  <g id="g5289" transform="translate(-54.071 16.929)">
   <path id="path4728" d="m207.95 946.87c-5.542 0-9.896-3.1667-9.896-6.9271s4.354-6.9271 9.896-6.9271 9.896 3.1667 9.896 6.9271-4.354 6.9271-9.896 6.9271zm-9.896 21.77c-5.542 0-9.896-3.166-9.896-6.927 0-3.76 4.354-6.927 9.896-6.927s9.896 3.167 9.896 6.927c0 3.761-4.354 6.927-9.896 6.927zm-21.771-55.416c-5.541 0-9.895-3.1667-9.895-6.9271s4.354-6.9271 9.895-6.9271c5.542 0 9.896 3.1667 9.896 6.9271s-4.354 6.9271-9.896 6.9271zm0 67.291c-5.541 0-9.895-3.166-9.895-6.927 0-3.76 4.354-6.927 9.895-6.927 5.542 0 9.896 3.167 9.896 6.927 0 3.761-4.354 6.927-9.896 6.927zm-27.708 5.938c-5.5417 0-9.8958-3.167-9.8958-6.927 0-3.761 4.3541-6.927 9.8958-6.927 5.542 0 9.896 3.166 9.896 6.927 0 3.76-4.354 6.927-9.896 6.927zm-10.688-79.958c3.1667-3.1667 7.3229-3.7604 9.5-1.5833 2.1771 2.177 1.3854 6.3333-1.5833 9.5-3.1667 3.1666-7.3229 3.7604-9.5 1.5833-2.375-2.1771-1.5834-6.5313 1.5833-9.5zm-17.021 76c-5.5417 0-9.8959-3.167-9.8959-6.928 0-3.76 4.3542-6.927 9.8959-6.927 5.5416 0 9.8958 3.167 9.8958 6.927 0 3.761-4.3542 6.928-9.8958 6.928zm77.187-69.271c5.542 0 9.896 3.1666 9.896 6.9271 0 3.7604-4.354 6.927-9.896 6.927s-9.896-3.1666-9.896-6.927c0-3.7605 4.354-6.9271 9.896-6.9271zm-49.479-27.708c-44.927 0-37.802 17.615-33.646 21.771l9.8958 9.8958c6.3333 6.5313-1.3854 13.854-8.7083 10.688l-24.74-10.688c-17.417-7.5208-21.969 13.656-21.969 23.75 0 30.677 35.427 55.417 79.167 55.417s79.167-24.74 79.167-55.417-35.427-55.417-79.167-55.417z"/>
  </g>
 </g>
</svg>
