<?xml version="1.0" encoding="UTF-8" standalone="no"?>
<svg id="svg4157" xmlns:rdf="http://www.w3.org/1999/02/22-rdf-syntax-ns#" xmlns="http://www.w3.org/2000/svg" height="189" width="189" version="1.1" xmlns:cc="http://creativecommons.org/ns#" xmlns:dc="http://purl.org/dc/elements/1.1/" viewBox="0 0 189 189">
 <g id="layer1" transform="translate(0 -863.36)">
  <path id="path5303" d="m178.37 934.73-10.238-3.7406v-21.459l10.238-4.3312-69.3-25.594-84.263 29.531c-8.0719 3.9375-8.2688 14.766-8.2688 23.625 0 2.9531 0.3938 5.9062 0.9844 8.6625-6.6938 4.3312-6.8906 14.372-6.8906 22.838 0 6.89 1.5749 13.191 5.9062 17.128-0.9844 3.347-0.3938 7.481-0.3938 12.403 0 8.86 2.3625 16.931 10.238 19.688l54.731 22.64 96.862-40.162-10.238-3.741v-21.656l10.238-4.331-15.75-5.9066v-18.9l16.144-6.6938zm-151.2-11.812 54.731 21.459 78.553-31.697v16.931l-78.553 32.681-54.731-21.656v-17.719zm132.89 67.922-78.553 32.484-54.928-21.656v-15.356l49.022 20.081 84.656-33.469-0.197 17.916zm-5.512-29.531-78.553 32.484-54.731-21.656v-17.719l56.306 22.444 77.175-32.288v16.734z"/>
 </g>
</svg>
